HIERARCHY
ROOT hip
{
  OFFSET 0 0 0
  CHANNELS 6 Xposition Yposition Zposition Zrotation Yrotation Xrotation
  JOINT abdomen
  {
    OFFSET 0 20.6881 -0.73152
    CHANNELS 3 Zrotation Xrotation Yrotation
    JOINT chest
    {
      OFFSET 0 11.7043 -0.48768
      CHANNELS 3 Zrotation Xrotation Yrotation
      JOINT neck
      {
        OFFSET 0 22.1894 -2.19456
        CHANNELS 3 Zrotation Xrotation Yrotation
        JOINT head
        {
          OFFSET -0.24384 7.07133 1.2192
          CHANNELS 3 Zrotation Xrotation Yrotation
          JOINT leftEye
          {
            OFFSET 4.14528 8.04674 8.04672
            CHANNELS 3 Zrotation Xrotation Yrotation
            End Site
            {
              OFFSET 1 0 0
            }
          }
          JOINT rightEye
          {
            OFFSET -3.6576 8.04674 8.04672
            CHANNELS 3 Zrotation Xrotation Yrotation
            End Site
            {
              OFFSET 1 0 0
            }
          }
        }
      }
      JOINT rCollar
      {
        OFFSET -2.68224 19.2634 -4.8768
        CHANNELS 3 Zrotation Xrotation Yrotation
        JOINT rShldr
        {
          OFFSET -8.77824 -1.95073 1.46304
          CHANNELS 3 Zrotation Xrotation Yrotation
          JOINT rForeArm
          {
            OFFSET -28.1742 -1.7115 0.48768
            CHANNELS 3 Zrotation Xrotation Yrotation
            JOINT rHand
            {
              OFFSET -22.5879 0.773209 7.07136
              CHANNELS 3 Zrotation Xrotation Yrotation
              JOINT rThumb1
              {
                OFFSET -1.2192 -0.487915 3.41376
                CHANNELS 3 Zrotation Xrotation Yrotation
                JOINT rThumb2
                {
                  OFFSET -3.37035 -0.52449 3.41376
                  CHANNELS 3 Zrotation Xrotation Yrotation
                  End Site
                  {
                    OFFSET -1.78271 -1.18214 1.43049
                  }
                }
              }
              JOINT rIndex1
              {
                OFFSET -7.75947 0.938293 5.60832
                CHANNELS 3 Zrotation Xrotation Yrotation
                JOINT rIndex2
                {
                  OFFSET -2.54057 -0.884171 1.56538
                  CHANNELS 3 Zrotation Xrotation Yrotation
                  End Site
                  {
                    OFFSET -1.62519 -0.234802 1.16502
                  }
                }
              }
              JOINT rMid1
              {
                OFFSET -8.24714 1.18213 3.41376
                CHANNELS 3 Zrotation Xrotation Yrotation
                JOINT rMid2
                {
                  OFFSET -3.10165 -0.590103 1.0647
                  CHANNELS 3 Zrotation Xrotation Yrotation
                  End Site
                  {
                    OFFSET -2.48547 -0.328903 0.83742
                  }
                }
              }
              JOINT rRing1
              {
                OFFSET -8.82822 0.546677 1.51678
                CHANNELS 3 Zrotation Xrotation Yrotation
                JOINT rRing2
                {
                  OFFSET -2.60934 -0.819778 -0.0198488
                  CHANNELS 3 Zrotation Xrotation Yrotation
                  End Site
                  {
                    OFFSET -2.33842 -0.294052 0.168128
                  }
                }
              }
              JOINT rPinky1
              {
                OFFSET -8.27202 -0.0477905 -0.4584
                CHANNELS 3 Zrotation Xrotation Yrotation
                JOINT rPinky2
                {
                  OFFSET -1.82734 -0.647385 -0.700984
                  CHANNELS 3 Zrotation Xrotation Yrotation
                  End Site
                  {
                    OFFSET -1.69225 -0.51767 -0.607171
                  }
                }
              }
            }
          }
        }
      }
      JOINT lCollar
      {
        OFFSET 2.68224 19.2634 -4.8768
        CHANNELS 3 Zrotation Xrotation Yrotation
        JOINT lShldr
        {
          OFFSET 8.77824 -1.95073 1.46304
          CHANNELS 3 Zrotation Xrotation Yrotation
          JOINT lForeArm
          {
            OFFSET 28.1742 -1.7115 0.48768
            CHANNELS 3 Zrotation Xrotation Yrotation
            JOINT lHand
            {
              OFFSET 22.5879 0.773209 7.07136
              CHANNELS 3 Zrotation Xrotation Yrotation
              JOINT lThumb1
              {
                OFFSET 1.2192 -0.487915 3.41376
                CHANNELS 3 Zrotation Xrotation Yrotation
                JOINT lThumb2
                {
                  OFFSET 3.37035 -0.52449 3.41376
                  CHANNELS 3 Zrotation Xrotation Yrotation
                  End Site
                  {
                    OFFSET 1.78271 -1.18214 1.43049
                  }
                }
              }
              JOINT lIndex1
              {
                OFFSET 7.75947 0.938293 5.60832
                CHANNELS 3 Zrotation Xrotation Yrotation
                JOINT lIndex2
                {
                  OFFSET 2.54057 -0.884171 1.56538
                  CHANNELS 3 Zrotation Xrotation Yrotation
                  End Site
                  {
                    OFFSET 1.62519 -0.234802 1.16502
                  }
                }
              }
              JOINT lMid1
              {
                OFFSET 8.24714 1.18213 3.41376
                CHANNELS 3 Zrotation Xrotation Yrotation
                JOINT lMid2
                {
                  OFFSET 3.10165 -0.590103 1.0647
                  CHANNELS 3 Zrotation Xrotation Yrotation
                  End Site
                  {
                    OFFSET 2.48547 -0.328903 0.83742
                  }
                }
              }
              JOINT lRing1
              {
                OFFSET 8.82822 0.546677 1.51678
                CHANNELS 3 Zrotation Xrotation Yrotation
                JOINT lRing2
                {
                  OFFSET 2.60934 -0.819778 -0.0198488
                  CHANNELS 3 Zrotation Xrotation Yrotation
                  End Site
                  {
                    OFFSET 2.33842 -0.294052 0.168128
                  }
                }
              }
              JOINT lPinky1
              {
                OFFSET 8.27202 -0.0477905 -0.4584
                CHANNELS 3 Zrotation Xrotation Yrotation
                JOINT lPinky2
                {
                  OFFSET 1.82734 -0.647385 -0.700984
                  CHANNELS 3 Zrotation Xrotation Yrotation
                  End Site
                  {
                    OFFSET 1.69225 -0.51767 -0.607171
                  }
                }
              }
            }
          }
        }
      }
    }
  }
  JOINT rButtock
  {
    OFFSET -8.77824 4.35084 1.2192
    CHANNELS 3 Zrotation Xrotation Yrotation
    JOINT rThigh
    {
      OFFSET 0 -1.70687 -2.19456
      CHANNELS 3 Zrotation Xrotation Yrotation
      JOINT rShin
      {
        OFFSET 0 -36.8199 0.73152
        CHANNELS 3 Zrotation Xrotation Yrotation
        JOINT rFoot
        {
          OFFSET 0.73152 -45.1104 -5.12064
          CHANNELS 3 Zrotation Xrotation Yrotation
          End Site
          {
            OFFSET -1.1221 -3.69964 12.103
          }
        }
      }
    }
  }
  JOINT lButtock
  {
    OFFSET 8.77824 4.35084 1.2192
    CHANNELS 3 Zrotation Xrotation Yrotation
    JOINT lThigh
    {
      OFFSET 0 -1.70687 -2.19456
      CHANNELS 3 Zrotation Xrotation Yrotation
      JOINT lShin
      {
        OFFSET 0 -36.8199 0.73152
        CHANNELS 3 Zrotation Xrotation Yrotation
        JOINT lFoot
        {
          OFFSET -0.73152 -45.1104 -5.12064
          CHANNELS 3 Zrotation Xrotation Yrotation
          End Site
          {
            OFFSET 1.1221 -3.69964 12.103
          }
        }
      }
    }
  }
}
MOTION
Frames:	4
Frame Time:	0.00833333
-3.57079 84.2564 37.8086 0.0 0.0 0.0 -1.24151 -0.00398119 -0.0340789 -0.342494 -0.00249264 -0.0593272 1.43714e-14 0.0 -1.98785e-16 4.28971e-14 3.18055e-15 -6.11884e-16 -0.0 0.0 0.0 -0.0 0.0 0.0 7.50313e-15 1.55301e-17 9.93923e-17 1.50289e-13 4.96962e-16 -7.95139e-16 2.57873e-12 -7.59755e-13 -7.63333e-14 2.95197e-11 8.31641e-13 -3.62583e-13 6.96253e-11 1.51067e-13 -9.31903e-13 1.2023e-10 2.60805e-13 -1.60379e-12 6.96315e-11 1.55052e-13 -9.38264e-13 7.73091 5.47488 0.417314 6.96253e-11 1.51275e-13 -9.25541e-13 2.90554 0.965183 0.102902 6.96319e-11 1.51871e-13 -9.25541e-13 10.2786 0.731801 0.0259123 6.96255e-11 1.50281e-13 -9.16e-13 2.22167 -0.733487 -0.20892 7.30681e-15 1.63066e-17 -2.98177e-16 1.47978e-13 5.2181e-16 -1.98785e-15 2.58137e-12 7.80429e-13 -6.36111e-14 2.95046e-11 -7.11376e-13 -3.56222e-13 6.96103e-11 1.44199e-13 -9.1918e-13 1.20219e-10 2.44903e-13 -1.59664e-12 6.96045e-11 1.46306e-13 -9.12819e-13 -7.73091 5.47488 -0.417314 6.96095e-11 1.44914e-13 -9.25541e-13 -2.90554 0.965183 -0.102902 6.96023e-11 1.44914e-13 -9.25541e-13 -10.2786 0.731801 -0.0259123 6.9611e-11 1.43523e-13 -9.38264e-13 -2.22167 -0.733487 0.20892 -2.03217e-16 0.0 -3.88251e-19 -0.453821 -1.92099 -0.00952743 -0.00915574 -2.07857 -0.0755534 -0.487473 3.99699 0.136656 2.03217e-16 0.0 3.88251e-19 -1.43726 -5.97115 0.129662 -0.00126432 5.25796 -0.0454146 0.507806 0.710743 -0.0722729
-4.34262 84.1024 36.9245 -2.5738 -2.0533 0.4478 -0.807272 1.21814 0.325902 -0.0317056 -0.897233 0.0665528 0.00115413 1.60635 -0.124167 0.548904 -1.1056 -0.227473 -0.0 0.0 0.0 -0.0 0.0 0.0 -2.82541e-16 7.35968e-15 -1.72574e-14 22.7481 10.0799 -2.79733 -6.08531 -3.27649 8.8837 0.0376467 4.30618 0.599035 1.28983e-10 -9.46414e-11 3.84216e-11 2.23156e-10 -1.62934e-10 6.54072e-11 1.28988e-10 -9.46383e-11 3.84171e-11 7.73091 5.47488 0.417314 1.28983e-10 -9.46426e-11 3.84291e-11 2.90554 0.965183 0.102902 1.28988e-10 -9.46405e-11 3.84272e-11 10.2786 0.731801 0.0259123 1.28983e-10 -9.46416e-11 3.84368e-11 2.22167 -0.733487 -0.20892 -4.72253e-16 7.36096e-15 -1.76845e-14 -23.3278 9.99469 1.9089 5.93813 -3.15952 -8.71894 -0.0020765 -1.01101 0.142008 1.55701e-10 1.45941e-10 4.3046e-11 2.69241e-10 2.52471e-10 7.46522e-11 1.55696e-10 1.45942e-10 4.30554e-11 -7.73091 5.47488 -0.417314 1.55702e-10 1.45941e-10 4.30379e-11 -2.90554 0.965183 -0.102902 1.55694e-10 1.45941e-10 4.30409e-11 -10.2786 0.731801 -0.0259123 1.55707e-10 1.45943e-10 4.30296e-11 -2.22167 -0.733487 0.20892 -2.03217e-16 0.0 -3.88251e-19 -1.45013 -0.147113 1.47901 -0.00346458 -1.45229 -0.0367158 -0.665054 -1.38033 -4.03331 2.03217e-16 0.0 3.88251e-19 1.42175 -6.58844 -1.23323 -0.00759639 9.90159 -0.16019 0.760143 -4.15792 2.93624
-4.34894 84.0985 36.9141 -2.6024 -2.0637 0.4943 -0.366186 2.50741 0.704879 0.304865 -1.83242 0.199152 0.00905209 3.30342 -0.254053 1.11714 -2.2833 -0.464644 -0.0 0.0 0.0 -0.0 0.0 0.0 -9.31372e-15 1.56602e-14 -3.59396e-14 47.9257 20.6539 -6.04729 -11.426 -6.47715 18.3659 -0.0215417 8.85852 1.24389 2.06306e-10 -2.1167e-10 8.71047e-11 3.57259e-10 -3.64418e-10 1.48276e-10 2.06311e-10 -2.11668e-10 8.71021e-11 7.73091 5.47488 0.417314 2.06306e-10 -2.11673e-10 8.71134e-11 2.90554 0.965183 0.102902 2.0631e-10 -2.11669e-10 8.71094e-11 10.2786 0.731801 0.0259123 2.06306e-10 -2.1167e-10 8.7119e-11 2.22167 -0.733487 -0.20892 -9.49691e-15 1.5662e-14 -3.63993e-14 -48.7579 20.5159 4.12084 11.1801 -6.25403 -18.0172 0.001184 -2.08201 0.292593 2.51632e-10 3.08423e-10 9.83209e-11 4.35246e-10 5.33522e-10 1.70519e-10 2.51627e-10 3.08424e-10 9.83338e-11 -7.73091 5.47488 -0.417314 2.51634e-10 3.08422e-10 9.83109e-11 -2.90554 0.965183 -0.102902 2.51625e-10 3.08422e-10 9.83172e-11 -10.2786 0.731801 -0.0259123 2.51644e-10 3.08428e-10 9.83074e-11 -2.22167 -0.733487 0.20892 -2.03217e-16 0.0 -3.88251e-19 -2.60378 1.72513 3.0548 0.00162885 -0.790437 0.00431652 -1.70582 -6.99394 -8.5039 2.03217e-16 0.0 3.88251e-19 4.41139 -7.23621 -2.67884 0.0066288 14.8103 -0.286326 1.58879 -9.26389 6.18387
-4.34874 84.0955 36.9062 -2.6025 -2.0629 0.5301 0.0150625 3.66184 1.04778 0.601675 -2.68667 0.318639 0.0244122 4.81896 -0.373675 1.62034 -3.31659 -0.683436 -0.0 0.0 0.0 -0.0 0.0 0.0 -1.58539e-14 2.2048e-14 -5.19709e-14 71.5697 29.9285 -9.54477 -15.2997 -8.88592 26.9564 -0.163106 12.9128 1.83854 2.47698e-10 -2.84226e-10 1.17129e-10 4.2901e-10 -4.89324e-10 1.99429e-10 2.47701e-10 -2.84225e-10 1.17128e-10 7.73091 5.47488 0.417314 2.47697e-10 -2.8423e-10 1.17138e-10 2.90554 0.965183 0.102902 2.47699e-10 -2.84225e-10 1.17133e-10 10.2786 0.731801 0.0259123 2.47697e-10 -2.84225e-10 1.17142e-10 2.22167 -0.733487 -0.20892 -1.60304e-14 2.20503e-14 -5.2457e-14 -72.2365 29.8404 6.50528 15.014 -8.60223 -26.4368 0.0088231 -3.03295 0.426556 3.27883e-10 4.37534e-10 1.30976e-10 5.67284e-10 7.56924e-10 2.2715e-10 3.27879e-10 4.37535e-10 1.30992e-10 -7.73091 5.47488 -0.417314 3.27887e-10 4.37533e-10 1.30965e-10 -2.90554 0.965183 -0.102902 3.27877e-10 4.37532e-10 1.30974e-10 -10.2786 0.731801 -0.0259123 3.279e-10 4.37541e-10 1.30965e-10 -2.22167 -0.733487 0.20892 -2.03217e-16 0.0 -3.88251e-19 -3.71928 3.39019 4.46388 0.0053713 -0.199717 0.0408955 -3.38674 -11.8592 -12.6433 2.03217e-16 0.0 3.88251e-19 7.05105 -7.80897 -3.97004 0.038704 19.1885 -0.405492 2.82922 -13.7396 9.19535
